P1
# Odd height horizontal split
# Top half white, bottom half black
5 7
0 0 0 0 0
0 0 0 0 0
0 0 0 0 0
0 0 0 0 0
1 1 1 1 1
1 1 1 1 1
1 1 1 1 1
