P1
# Composite quadrants: Q1=1, Q2=0, Q3=checker, Q4=vertical stripes
# Odd dimensions exercise split rules
11 11
1 1 1 1 1 1 0 0 0 0 0
1 1 1 1 1 1 0 0 0 0 0
1 1 1 1 1 1 0 0 0 0 0
1 1 1 1 1 1 0 0 0 0 0
1 1 1 1 1 1 0 0 0 0 0
1 1 1 1 1 1 0 0 0 0 0
0 1 0 1 0 1 1 0 1 0 1
1 0 1 0 1 0 1 0 1 0 1
0 1 0 1 0 1 1 0 1 0 1
1 0 1 0 1 0 1 0 1 0 1
0 1 0 1 0 1 1 0 1 0 1
