P1
# Odd width vertical split
# Left half black, right half white
7 5
1 1 1 1 0 0 0
1 1 1 1 0 0 0
1 1 1 1 0 0 0
1 1 1 1 0 0 0
1 1 1 1 0 0 0
